<svg xmlns="http://www.w3.org/2000/svg" version="1.1" xmlns:xlink="http://www.w3.org/1999/xlink" xmlns:svgjs="http://svgjs.dev/svgjs" width="2000" height="1500" viewBox="0 0 2000 1500"><rect width="2000" height="1500" fill="#ea9937"></rect><g transform="matrix(0.75,0,0,0.75,249.090909090909,282.7536437246964)"><svg viewBox="0 0 396 247" data-background-color="#ea9937" preserveAspectRatio="xMidYMid meet" height="1247" width="2000" xmlns="http://www.w3.org/2000/svg" xmlns:xlink="http://www.w3.org/1999/xlink"><g id="tight-bounds" transform="matrix(1,0,0,1,0.2400000000000091,-0.09999999999999432)"><svg viewBox="0 0 395.52 247.2" height="247.2" width="395.52"><g><svg></svg></g><g><svg viewBox="0 0 395.52 247.2" height="247.2" width="395.52"><g transform="matrix(1,0,0,1,75.54432,47.8242895362083)"><svg viewBox="0 0 244.43135999999998 151.5514209275834" height="151.5514209275834" width="244.43135999999998"><g><svg viewBox="0 0 244.43135999999998 151.5514209275834" height="151.5514209275834" width="244.43135999999998"><g><svg viewBox="0 0 244.43135999999998 151.5514209275834" height="151.5514209275834" width="244.43135999999998"><g id="textblocktransform"><svg viewBox="0 0 244.43135999999998 151.5514209275834" height="151.5514209275834" width="244.43135999999998" id="textblock"><g><svg viewBox="0 0 244.43135999999998 151.5514209275834" height="151.5514209275834" width="244.43135999999998"><g transform="matrix(1,0,0,1,0,0)"><svg width="244.43135999999998" viewBox="-0.9500000476837158 -34.54999923706055 61.45000076293945 38.099998474121094" height="151.5514209275834" data-palette-color="#ea3c12"><path d="M14.5-14.3L14.5-14.3Q15.2-14.3 15.2-12.65L15.2-12.65Q15.2-10.15 12.73-7.98 10.25-5.8 7.05-5.8L7.05-5.8Q5-5.8 3.1-6.8L3.1-6.8Q-0.95-9-0.95-14.45L-0.95-14.45Q-0.95-18.3 1.15-22L1.15-22Q4.05-27.05 9.47-30 14.9-32.95 20.05-32.95L20.05-32.95Q23.8-32.95 26.2-31.3L26.2-31.3Q28.9-29.45 28.9-25.8L28.9-25.8Q28.9-21.15 24.4-11.23 19.9-1.3 19.9 0L19.9 0Q19.9 0.4 20.15 0.25L20.15 0.25Q21.45-0.6 32.08-13.33 42.7-26.05 46.85-29.05L46.85-29.05Q50.55-31.8 53.03-33.18 55.5-34.55 58.1-34.55L58.1-34.55Q58.8-34.55 59.15-34.5L59.15-34.5Q60.5-34.4 60.5-33.1L60.5-33.1Q60.5-32.45 60.05-32.45L60.05-32.45Q60-32.45 59.35-32.68 58.7-32.9 58.25-32.9L58.25-32.9Q51.25-32.9 39.4-20.25L39.4-20.25Q34.95-15.5 28.58-7.45 22.2 0.6 21.05 1.25L21.05 1.25Q17 3.55 16.5 3.55L16.5 3.55Q16.35 3.55 16.35 3.05L16.35 3.05Q16.35 1.4 19.15-5.35L19.15-5.35Q20.3-7.95 22.5-13.15L22.5-13.15 24.8-19.9Q26-23.3 26-24.85L26-24.85Q26-28.3 24-30.1 22-31.9 18.25-31.9 14.5-31.9 10.2-29.25L10.2-29.25Q5.55-26.25 3.25-21.85 0.95-17.45 0.95-14.4 0.95-11.35 2.2-9.6L2.2-9.6Q4.25-6.75 7.65-6.75L7.65-6.75Q10.25-6.75 12.25-8.47 14.25-10.2 14.25-12.85L14.25-12.85Q14.25-13.4 14.13-13.85 14-14.3 14.5-14.3Z" opacity="1" transform="matrix(1,0,0,1,0,0)" fill="#ea3c12" class="undefined-text-0" data-fill-palette-color="primary" id="text-0"></path></svg></g></svg></g></svg></g></svg></g></svg></g></svg></g><g><path d="M245.816 0c68.262 0 123.6 55.338 123.6 123.6 0 68.262-55.338 123.6-123.6 123.6-30.819 0-59.003-11.28-80.65-29.935h10.914c19.46 14.512 43.594 23.102 69.736 23.101 64.488 0 116.766-52.278 116.766-116.766 0-64.488-52.278-116.766-116.766-116.766-26.141 0-50.276 8.59-69.736 23.101l-10.914 0c21.647-18.656 49.831-29.935 80.65-29.935z" fill="#ea3c12" stroke="transparent" data-fill-palette-color="tertiary"></path></g></svg></g><defs></defs></svg><rect width="395.52" height="247.2" fill="none" stroke="none" visibility="hidden"></rect></g></svg></g></svg>