<svg xmlns="http://www.w3.org/2000/svg" version="1.1" xmlns:xlink="http://www.w3.org/1999/xlink" xmlns:svgjs="http://svgjs.dev/svgjs" width="1000" height="1000" viewBox="0 0 1000 1000"><rect width="1000" height="1000" fill="#000000"></rect><g transform="matrix(0.7,0,0,0.7,150.41362629746612,45.36843827288169)"><svg viewBox="0 0 190 247" data-background-color="#c56e33" preserveAspectRatio="xMidYMid meet" height="1300" width="1000" xmlns="http://www.w3.org/2000/svg" xmlns:xlink="http://www.w3.org/1999/xlink"><g id="tight-bounds" transform="matrix(1,0,0,1,-0.1122699950265087,-0.10000467406788971)"><svg viewBox="0 0 190.22453531598512 247.2" height="247.2" width="190.22453531598512"><g><svg viewBox="0 0 190.22453531598512 247.2" height="247.2" width="190.22453531598512"><g><svg viewBox="0 0 190.22453531598512 247.2" height="247.2" width="190.22453531598512"><g id="textblocktransform"><svg viewBox="0 0 190.22453531598512 247.2" height="247.2" width="190.22453531598512" id="textblock"><g><svg viewBox="0 0 190.22453531598512 247.2" height="247.2" width="190.22453531598512"><g transform="matrix(1,0,0,1,0,0)"><svg width="190.22453531598512" viewBox="1.25 -36 31.049999237060547 40.349998474121094" height="247.2" data-palette-color="#ffffff"><path d="M10.5 4.35L10.5 4.35Q9.8 4.35 8.78 4.03 7.75 3.7 6.98 2.85 6.2 2 6.2 0.35L6.2 0.35Q6.2-1.1 6.83-3.45 7.45-5.8 8.4-8.72 9.35-11.65 10.3-14.88 11.25-18.1 11.88-21.35 12.5-24.6 12.5-27.6L12.5-27.6Q12.5-29.45 12.38-31.05 12.25-32.65 11.63-33.63 11-34.6 9.5-34.6L9.5-34.6Q8.1-34.6 7.13-33.77 6.15-32.95 5.53-31.65 4.9-30.35 4.63-28.9 4.35-27.45 4.35-26.2L4.35-26.2Q4.35-25.4 4.48-24.73 4.6-24.05 4.8-23.5L4.8-23.5Q2.85-23.5 2.05-24.58 1.25-25.65 1.25-27.1L1.25-27.1Q1.25-28.65 1.98-30.2 2.7-31.75 3.98-33.08 5.25-34.4 6.9-35.2 8.55-36 10.4-36L10.4-36Q13.5-36 15.03-33.58 16.55-31.15 16.55-27.1L16.55-27.1Q16.55-24.2 15.9-21.03 15.25-17.85 14.3-14.7 13.35-11.55 12.38-8.65 11.4-5.75 10.75-3.3 10.1-0.85 10.1 0.85L10.1 0.85Q10.1 1.7 10.38 2.25 10.65 2.8 11.5 2.8L11.5 2.8Q12.9 2.8 14.75 1.38 16.6-0.05 18.57-2.53 20.55-5 22.43-8.1 24.3-11.2 25.8-14.58 27.3-17.95 28.2-21.2 29.1-24.45 29.1-27.2L29.1-27.2Q29.1-29.7 28.35-30.88 27.6-32.05 26.35-32.4L26.35-32.4Q27.05-33.6 27.83-34.15 28.6-34.7 29.25-34.7L29.25-34.7Q30.3-34.7 31.3-33.35 32.3-32 32.3-29.15L32.3-29.15Q32.3-26.4 31.28-22.9 30.25-19.4 28.5-15.63 26.75-11.85 24.5-8.3 22.25-4.75 19.8-1.9 17.35 0.95 14.95 2.65 12.55 4.35 10.5 4.35Z" opacity="1" transform="matrix(1,0,0,1,0,0)" fill="#ffffff" class="undefined-text-0" data-fill-palette-color="primary" id="text-0"></path></svg></g></svg></g></svg></g></svg></g><g></g></svg></g><defs></defs></svg><rect width="190.22453531598512" height="247.2" fill="none" stroke="none" visibility="hidden"></rect></g></svg></g></svg>